<?xml version="1.0" standalone="no"?>
<!DOCTYPE svg PUBLIC "-//W3C//DTD SVG 20010904//EN"
 "http://www.w3.org/TR/2001/REC-SVG-20010904/DTD/svg10.dtd">
<svg version="1.0" xmlns="http://www.w3.org/2000/svg"
 width="500.000000pt" height="500.000000pt" viewBox="0 0 500.000000 500.000000"
 preserveAspectRatio="xMidYMid meet">
<metadata>
Created by potrace 1.11, written by Peter Selinger 2001-2013
</metadata>
<g transform="translate(0.000000,500.000000) scale(0.100000,-0.100000)"
fill="#000000" stroke="none">
<path d="M524 3968 c-39 -18 -58 -73 -41 -121 19 -57 30 -58 334 -58 153 0
290 0 305 0 60 2 97 67 75 133 -17 53 -27 55 -352 55 -177 1 -309 -3 -321 -9z"/>
<path d="M2003 3929 c-38 -11 -56 -35 -84 -111 -11 -29 -25 -65 -32 -80 l-12
-27 -690 -3 c-632 -3 -693 -4 -721 -20 -43 -25 -74 -60 -88 -103 -19 -55 -19
-2570 0 -2636 16 -52 48 -89 102 -115 35 -16 150 -17 2033 -17 l1996 0 46 22
c27 13 56 38 73 63 l29 41 2 1309 c3 1271 2 1310 -16 1346 -25 47 -67 86 -110
101 -24 8 -228 11 -695 11 l-661 0 -29 82 c-16 45 -42 95 -57 112 l-27 31
-514 2 c-303 1 -526 -2 -545 -8z m992 -274 c58 -150 -30 -135 781 -135 l694 0
0 -1255 c0 -1188 -1 -1255 -17 -1255 -24 -1 -3864 -1 -3885 0 -15 0 -16 92
-15 1253 l2 1252 711 3 711 2 26 25 c14 14 40 66 58 115 l33 90 432 0 432 0
37 -95z"/>
<path d="M3654 3347 c-36 -31 -47 -87 -23 -125 9 -17 28 -33 40 -37 13 -4 158
-8 322 -8 l299 0 24 25 c28 27 36 69 22 111 -19 52 -37 55 -361 55 -291 0
-298 0 -323 -21z"/>
<path d="M2518 3316 c-1 -2 -37 -6 -78 -9 -536 -39 -951 -489 -952 -1032 0
-60 5 -137 11 -170 7 -33 14 -71 17 -84 9 -44 47 -146 77 -206 151 -304 426
-511 757 -569 96 -17 295 -15 375 4 28 6 61 14 75 16 48 9 204 77 269 116 113
69 199 146 279 251 63 82 66 88 117 194 105 217 130 467 71 708 -51 209 -210
442 -394 578 -103 75 -274 155 -373 172 -18 3 -36 8 -40 10 -4 3 -47 8 -96 11
-48 3 -93 7 -100 9 -6 2 -13 2 -15 1z m97 -200 c292 -26 564 -221 686 -494 54
-119 70 -194 73 -340 5 -202 -53 -376 -178 -535 -94 -118 -242 -225 -388 -278
-102 -37 -149 -44 -298 -43 -180 2 -302 39 -455 140 -335 219 -470 666 -312
1034 97 226 303 414 532 486 78 24 214 44 265 38 14 -2 48 -5 75 -8z"/>
<path d="M2340 2905 c-159 -36 -296 -132 -385 -270 -40 -63 -77 -164 -78 -215
-2 -78 70 -122 138 -86 27 15 37 30 59 97 32 100 87 175 165 227 65 43 163 72
246 72 56 0 80 12 99 49 19 36 12 79 -20 111 -21 22 -34 25 -97 26 -39 1 -97
-4 -127 -11z"/>
<path d="M1883 2215 c-30 -30 -33 -39 -33 -93 0 -53 4 -64 30 -92 27 -29 35
-32 72 -27 58 8 80 34 86 101 6 70 -10 110 -51 127 -50 21 -70 18 -104 -16z"/>
</g>
</svg>
